<svg enable-background="new 0 0 100 80" height="80" viewBox="0 0 100 80" width="100" xmlns="http://www.w3.org/2000/svg"><g fill="#323232"><path d="m15.9 5.2c2.9 0 5.2.7 6.8 2.2s2.5 3.9 2.5 7.3v16.9h-6v-15.7c0-3.9-1.6-5.8-4.8-5.8-2.4 0-4.1.8-5 2.3s-1.3 3.7-1.3 6.6v12.7h-6v-26h4.6l.9 3.4h.3c.8-1.3 2-2.3 3.4-2.9 1.5-.7 3-1 4.6-1z"/><path d="m43.1 5.2c3.5 0 6.2 1 8.2 3.1s3 5 3 8.7v3.1h-17c.1 2.4.7 4.2 2 5.5 1.2 1.3 3 1.9 5.1 1.9 1.6 0 3.1-.2 4.5-.5 1.3-.3 2.7-.8 4.1-1.5v4.8c-1.3.6-2.6 1.1-4 1.3-1.4.3-3 .4-4.9.4-2.5 0-4.7-.5-6.7-1.5s-3.5-2.4-4.6-4.4-1.6-4.4-1.6-7.4c0-4.4 1.1-7.8 3.3-10.1 2.2-2.2 5-3.4 8.6-3.4zm0 4.5c-1.6 0-2.9.5-3.9 1.6-1 1-1.6 2.6-1.7 4.6h11.1c0-1.8-.5-3.3-1.4-4.4-.9-1.3-2.3-1.8-4.1-1.8z"/><path d="m65 18.4-8.5-12.7h6.8l5.6 8.8 5.6-8.8h6.8l-8.6 12.7 9 13.3h-6.8l-6-9.4-6 9.4h-6.9z"/><path d="m96.1 27.3c.7 0 1.5-.1 2.2-.2s1.4-.3 2-.5v4.5c-.6.3-1.5.5-2.5.7s-2.1.3-3.2.3c-1.5 0-2.8-.2-4-.7s-2.2-1.3-2.9-2.6c-.7-1.2-1-2.9-1-5.1v-13.5h-3.5v-2.6l3.8-2.1 1.9-5.5h3.8v5.7h7.3v4.5h-7.3v13.4c0 1.2.3 2.1 1 2.7.6.7 1.4 1 2.4 1z"/><path d="m16.4 57.8h15.9v20c-1.9.7-4.1 1.2-6.5 1.6-2.5.4-5 .6-7.7.6-3.5 0-6.6-.7-9.3-2.1s-4.7-3.5-6.2-6.3c-1.6-2.8-2.4-6.4-2.4-10.7 0-3.9.7-7.2 2.2-10.1 1.5-2.8 3.7-5 6.5-6.6 2.9-1.5 6.4-2.3 10.6-2.3 2.3 0 4.5.2 6.6.6s3.9 1 5.4 1.7l-3.1 7.8c-1.3-.7-2.7-1.1-4.1-1.5-1.4-.3-3-.5-4.6-.5-2.2 0-4 .5-5.3 1.5s-2.3 2.3-2.9 4-.9 3.5-.9 5.5c0 3.5.7 6.1 2.2 7.9 1.4 1.8 3.5 2.7 6.2 2.7.6 0 1.3 0 2.1-.1s1.5-.2 1.9-.3v-5.8h-6.6z"/><path d="m52 50.3c4.2 0 7.4 1.1 9.9 3.3 2.4 2.2 3.6 5.5 3.6 9.9v4.4h-17.6c.1 1.5.6 2.7 1.7 3.7 1 1 2.6 1.5 4.6 1.5 1.8 0 3.4-.2 4.9-.5s3-.9 4.6-1.7v7.1c-1.4.7-2.9 1.3-4.5 1.6-1.7.2-3.8.4-6.2.4-2.9 0-5.5-.5-7.7-1.5-2.3-1-4-2.6-5.3-4.8s-2-5-2-8.3c0-3.5.6-6.3 1.8-8.5s2.8-3.9 5-4.9c2-1.2 4.5-1.7 7.2-1.7zm.4 6.7c-1.2 0-2.1.4-2.9 1.1s-1.2 1.9-1.4 3.5h8.5c0-1.3-.4-2.4-1.1-3.2-.7-.9-1.8-1.4-3.1-1.4z"/><path d="m88.9 50.3c3 0 5.4.8 7.2 2.5 1.9 1.7 2.8 4.3 2.8 8v18.7h-9.9v-15.7c0-1.9-.3-3.3-.8-4.3-.6-1-1.4-1.5-2.6-1.5-1.9 0-3.1.8-3.7 2.3s-1 3.7-1 6.6v12.5h-9.9v-28.6h7.4l1.3 3.8h.4c.9-1.3 2.1-2.4 3.5-3.2 1.6-.7 3.3-1.1 5.3-1.1z"/></g></svg>